<svg width="594" height="167" viewBox="0 0 594 167" fill="none" xmlns="http://www.w3.org/2000/svg">
<path d="M217.43 132.6L219.46 136.39H224.81L214.28 116.71H206.09L195.56 136.39H200.91L202.94 132.6H217.43ZM210.18 119.06L215.76 129.49H204.59L210.18 119.06Z" fill="#080833"/>
<path d="M228.2 132.23C228.29 132.42 228.38 132.61 228.49 132.79C228.51 132.83 228.54 132.87 228.57 132.91L228.63 133C228.73 133.15 228.83 133.3 228.94 133.44C228.99 133.5 229.04 133.56 229.09 133.61L229.23 133.77C229.31 133.86 229.39 133.95 229.47 134.03C229.58 134.14 229.7 134.23 229.82 134.33L229.98 134.46C230.02 134.49 230.06 134.53 230.1 134.56C231.81 135.81 234.38 136.42 237.76 136.38H244.26C244.63 136.38 244.99 136.37 245.34 136.35L245.58 136.34C245.92 136.32 246.25 136.29 246.57 136.26L246.7 136.24C247.7 136.12 248.61 135.92 249.41 135.64L249.55 135.59C249.79 135.5 250.02 135.41 250.24 135.31L250.35 135.26C251.32 134.79 252.08 134.21 252.66 133.51L252.76 133.39C252.89 133.22 253.01 133.05 253.12 132.87L253.18 132.77C253.52 132.19 253.77 131.53 253.92 130.8L253.95 130.66C253.99 130.43 254.03 130.19 254.05 129.95C254.05 129.95 254.09 129.47 254.1 129.33H248.76C248.66 129.69 248.52 130.02 248.34 130.32L248.31 130.38C248.23 130.51 248.15 130.63 248.06 130.74L248.01 130.81C247.6 131.31 247.09 131.7 246.48 132C246.44 132.02 246.4 132.04 246.37 132.05C246.24 132.11 246.1 132.17 245.94 132.22L245.87 132.24C245.36 132.41 244.82 132.54 244.22 132.61L243.42 132.67C243.23 132.68 243.02 132.69 242.81 132.69H239.03C237.04 132.72 235.49 132.33 234.42 131.55C234.38 131.52 234.34 131.49 234.3 131.46L234.25 131.42C234.16 131.35 234.07 131.28 233.99 131.2C233.93 131.14 233.87 131.08 233.81 131.01L233.73 130.93C233.69 130.89 233.65 130.84 233.61 130.79C233.53 130.69 233.46 130.59 233.39 130.48C233.34 130.41 233.32 130.37 233.3 130.33C233.23 130.21 233.17 130.08 233.1 129.95L233.05 129.84C232.99 129.69 232.94 129.54 232.89 129.39L232.86 129.3C232.81 129.14 232.78 128.97 232.75 128.8L232.74 128.72C232.71 128.56 232.69 128.37 232.68 128.18L232.67 125.26C232.67 125.09 232.68 124.92 232.69 124.77L232.7 124.64C232.72 124.49 232.74 124.33 232.77 124.19L232.78 124.13C232.89 123.62 233.06 123.17 233.29 122.78L233.32 122.72C233.4 122.59 233.48 122.47 233.57 122.36L233.62 122.29C234.03 121.79 234.54 121.4 235.15 121.1L235.26 121.05C235.39 120.99 235.54 120.93 235.69 120.87L235.78 120.84C236.27 120.67 236.81 120.55 237.41 120.48L238.21 120.41C238.4 120.4 238.61 120.39 238.82 120.39L243.21 120.38V120.39C244.91 120.44 246.26 120.82 247.22 121.53C247.26 121.56 247.3 121.59 247.34 121.62C247.47 121.73 247.56 121.8 247.65 121.88C247.71 121.94 248.17 122.49 248.24 122.59C248.29 122.66 248.31 122.7 248.33 122.73C248.4 122.85 248.47 122.98 248.53 123.11L248.58 123.21C248.64 123.36 248.7 123.51 248.74 123.66L248.77 123.75H254.1V123.51C254.08 123.21 254.05 122.91 254 122.64L253.99 122.58C253.94 122.27 253.88 122.01 253.81 121.78L253.79 121.71C253.7 121.4 253.62 121.19 253.54 120.99L253.46 120.82C253.37 120.63 253.28 120.44 253.17 120.27C253.15 120.23 253.12 120.19 253.09 120.15L253.03 120.06C252.93 119.91 252.83 119.76 252.72 119.62C252.67 119.56 252.62 119.51 252.57 119.45L252.42 119.28C252.34 119.2 252.27 119.11 252.18 119.03C252.06 118.92 251.94 118.82 251.81 118.72L251.67 118.6C251.63 118.57 251.59 118.53 251.55 118.5C249.84 117.25 247.26 116.64 243.89 116.68L243.28 116.69V116.67L237.4 116.68C237.03 116.68 236.67 116.69 236.32 116.71L236.08 116.72C235.74 116.74 235.41 116.77 235.09 116.8L235.01 116.81C233.96 116.94 233.05 117.14 232.25 117.41L232.11 117.46C231.87 117.55 231.63 117.64 231.41 117.74L231.25 117.82C230.33 118.26 229.57 118.85 228.99 119.55L228.89 119.68C228.76 119.85 228.64 120.01 228.54 120.19L228.48 120.29C228.14 120.87 227.89 121.53 227.74 122.26L227.71 122.4C227.67 122.63 227.63 122.87 227.61 123.11L227.6 123.26C227.57 123.56 227.56 123.82 227.56 124.09L227.58 129.46V129.49C227.6 129.8 227.63 130.09 227.68 130.36L227.69 130.43C227.74 130.74 227.8 130.99 227.87 131.23L227.91 131.36C227.98 131.6 228.06 131.82 228.15 132.02L228.2 132.23Z" fill="#080833"/>
<path d="M258.61 132.24C258.7 132.43 258.79 132.62 258.9 132.8C258.92 132.84 258.95 132.88 258.98 132.92L259.04 133.01C259.14 133.16 259.24 133.31 259.35 133.45C259.4 133.51 259.45 133.57 259.5 133.63L259.64 133.79C259.72 133.88 259.8 133.97 259.88 134.05C259.99 134.16 260.11 134.25 260.23 134.35L260.39 134.48C260.43 134.51 260.47 134.55 260.51 134.58C262.22 135.83 264.81 136.44 268.17 136.4H274.67C275.04 136.4 275.4 136.39 275.75 136.37L275.99 136.36C276.33 136.34 276.66 136.31 276.98 136.28L277.11 136.26C278.1 136.14 279.02 135.94 279.82 135.66L279.96 135.61C280.2 135.52 280.43 135.43 280.65 135.33L280.76 135.28C281.73 134.81 282.49 134.23 283.07 133.53L283.17 133.41C283.3 133.24 283.42 133.07 283.53 132.89L283.59 132.79C283.93 132.21 284.18 131.55 284.33 130.82L284.36 130.68C284.4 130.45 284.44 130.21 284.46 129.97L284.48 129.76C284.49 129.62 284.5 129.49 284.51 129.34H279.17C279.07 129.7 278.93 130.03 278.75 130.33L278.72 130.39C278.64 130.52 278.56 130.64 278.47 130.75L278.41 130.82C278 131.32 277.49 131.71 276.88 132.01L276.77 132.06C276.64 132.12 276.49 132.18 276.34 132.23L276.27 132.25C275.76 132.42 275.22 132.55 274.62 132.62L274.53 132.63C274.36 132.65 274.16 132.67 273.97 132.68L273.82 132.69C273.63 132.7 273.42 132.71 273.21 132.71H269.43C267.46 132.74 265.89 132.35 264.82 131.57C264.78 131.54 264.74 131.51 264.7 131.48L264.65 131.44C264.56 131.37 264.47 131.3 264.39 131.22C264.33 131.16 264.27 131.1 264.21 131.04L264.14 130.96C264.1 130.91 264.06 130.87 264.02 130.82C263.94 130.72 263.87 130.62 263.8 130.51C263.76 130.44 263.73 130.41 263.71 130.37C263.64 130.25 263.57 130.12 263.51 129.99L263.46 129.88C263.4 129.74 263.35 129.59 263.3 129.44L263.27 129.35C263.23 129.19 263.19 129.02 263.16 128.85L263.15 128.76C263.12 128.6 263.1 128.42 263.09 128.23L263.08 125.31C263.08 125.14 263.09 124.98 263.1 124.82L263.11 124.69C263.13 124.54 263.15 124.38 263.18 124.24L263.19 124.18C263.3 123.67 263.47 123.22 263.7 122.83L263.73 122.77C263.81 122.64 263.89 122.52 263.98 122.41L264.04 122.34C264.45 121.84 264.96 121.45 265.57 121.16L265.68 121.11C265.82 121.05 265.96 120.99 266.11 120.93L266.2 120.9C266.69 120.73 267.23 120.61 267.83 120.54C267.83 120.54 268.28 120.49 268.48 120.48L268.63 120.47C268.82 120.46 269.03 120.45 269.24 120.45L273.63 120.44V120.45C275.33 120.5 276.68 120.88 277.64 121.59C277.68 121.62 277.72 121.65 277.76 121.68C277.89 121.79 278.4 122.3 278.44 122.35C278.52 122.44 278.59 122.55 278.66 122.65C278.71 122.72 278.73 122.76 278.75 122.79C278.82 122.91 278.89 123.04 278.95 123.17L279 123.27C279.06 123.42 279.12 123.57 279.16 123.72L279.19 123.81H284.52V123.57C284.5 123.27 284.47 122.97 284.42 122.7L284.41 122.64C284.36 122.33 284.3 122.07 284.23 121.84L284.21 121.77C284.12 121.46 284.04 121.25 283.96 121.05L283.88 120.88C283.79 120.69 283.7 120.5 283.59 120.33C283.57 120.29 283.54 120.25 283.51 120.21L283.45 120.12C283.35 119.97 283.25 119.82 283.14 119.68C283.09 119.62 283.04 119.57 282.99 119.51L282.84 119.34C282.76 119.26 282.69 119.17 282.6 119.09C282.48 118.98 282.36 118.88 282.23 118.78L282.09 118.66C282.05 118.63 282.01 118.59 281.97 118.56C280.26 117.31 277.7 116.7 274.31 116.74L273.7 116.75V116.73L267.82 116.74C267.45 116.74 267.09 116.75 266.74 116.77L266.5 116.78C266.16 116.8 265.83 116.83 265.51 116.86L265.43 116.87C264.38 117 263.47 117.2 262.67 117.47L262.53 117.52C262.29 117.61 262.06 117.7 261.83 117.8L261.72 117.85C260.75 118.32 259.99 118.9 259.41 119.61L259.31 119.74C259.18 119.9 259.06 120.07 258.96 120.25L258.9 120.35C258.56 120.93 258.31 121.59 258.16 122.32L258.13 122.46C258.09 122.69 258.05 122.93 258.03 123.17L258.02 123.33C258 123.63 257.98 123.89 257.98 124.16L258 129.53V129.58C258.02 129.88 258.05 130.17 258.1 130.44L258.11 130.5C258.17 130.82 258.22 131.07 258.29 131.3L258.33 131.43C258.4 131.67 258.48 131.89 258.57 132.09L258.61 132.24Z" fill="#080833"/>
<path d="M288.26 132.24C288.34 132.43 288.43 132.62 288.54 132.8C288.56 132.84 288.59 132.88 288.62 132.93L288.67 133.01C288.77 133.16 288.86 133.31 288.97 133.45C289.02 133.51 289.07 133.57 289.12 133.63L289.26 133.8C289.33 133.88 289.41 133.97 289.49 134.05C289.6 134.16 289.72 134.25 289.83 134.35L289.98 134.48C290.02 134.51 290.06 134.55 290.1 134.58C291.75 135.83 294.23 136.44 297.47 136.4H303.03C303.38 136.4 303.73 136.39 304.07 136.37L304.3 136.36C304.63 136.34 304.95 136.31 305.25 136.28L305.38 136.26C306.34 136.14 307.21 135.94 307.99 135.66L308.12 135.61C308.36 135.52 308.58 135.43 308.79 135.33L308.9 135.28C309.83 134.81 310.57 134.23 311.12 133.53L311.21 133.41C311.34 133.24 311.45 133.07 311.55 132.89L311.6 132.79C311.93 132.21 312.17 131.55 312.31 130.82L312.34 130.68C312.38 130.45 312.41 130.21 312.44 129.97L312.46 129.76C312.48 129.51 312.5 129.25 312.5 128.98L312.48 123.58C312.46 123.28 312.43 122.98 312.39 122.71L312.38 122.65C312.33 122.34 312.27 122.08 312.21 121.85L312.19 121.78C312.1 121.48 312.03 121.26 311.95 121.06L311.88 120.89C311.8 120.7 311.71 120.52 311.61 120.34C311.59 120.3 311.56 120.26 311.54 120.22L311.48 120.13C311.39 119.98 311.29 119.83 311.18 119.69C311.13 119.63 311.09 119.58 311.04 119.52L310.89 119.35C310.82 119.27 310.74 119.18 310.66 119.1C310.55 118.99 310.43 118.89 310.31 118.79L310.17 118.67C310.13 118.64 310.09 118.6 310.05 118.57C308.4 117.32 305.92 116.71 302.68 116.76L302.09 116.77V116.75L297.12 116.76C296.76 116.76 296.42 116.77 296.08 116.79L295.85 116.8C295.52 116.82 295.2 116.85 294.9 116.88L294.77 116.9C293.81 117.02 292.94 117.22 292.16 117.5L292.03 117.55C291.79 117.64 291.57 117.73 291.36 117.83L291.21 117.91C290.32 118.35 289.59 118.94 289.04 119.64L288.94 119.77C288.82 119.94 288.7 120.1 288.6 120.28L288.54 120.39C288.21 120.97 287.98 121.63 287.83 122.36L287.8 122.5C287.76 122.73 287.73 122.97 287.7 123.21L287.69 123.36C287.66 123.67 287.65 123.93 287.65 124.2L287.67 129.57V129.6C287.69 129.91 287.72 130.2 287.76 130.47L287.77 130.55C287.82 130.84 287.87 131.1 287.94 131.33L287.98 131.47C288.04 131.69 288.12 131.91 288.21 132.12L288.26 132.24ZM292.6 124.77L292.61 124.65C292.63 124.49 292.65 124.33 292.67 124.19L292.68 124.13C292.78 123.62 292.95 123.17 293.17 122.78L293.21 122.71C293.28 122.59 293.36 122.47 293.44 122.36L293.5 122.28C293.89 121.79 294.38 121.4 294.97 121.1C295 121.08 295.04 121.07 295.08 121.05C295.21 120.99 295.35 120.93 295.49 120.88L295.59 120.85C296.05 120.69 297.22 120.48 297.22 120.48C297.4 120.46 297.58 120.44 297.77 120.43L297.9 120.42C298.1 120.41 298.29 120.4 298.5 120.4L302.03 120.39V120.4C303.67 120.45 304.96 120.83 305.89 121.53C305.93 121.56 305.96 121.59 306 121.62L306.05 121.66C306.14 121.73 306.22 121.81 306.3 121.88C306.36 121.94 306.41 122 306.47 122.06L306.54 122.14C306.58 122.19 306.62 122.24 306.66 122.29C306.73 122.39 306.8 122.49 306.87 122.59C306.92 122.66 306.94 122.7 306.96 122.73C307.03 122.86 307.09 122.98 307.15 123.11L307.2 123.21C307.26 123.36 307.31 123.51 307.36 123.66L307.39 123.75C307.43 123.91 307.47 124.08 307.5 124.25L307.51 124.31C307.54 124.48 307.55 124.65 307.57 124.83L307.55 128.41C307.53 128.56 307.51 128.72 307.49 128.86L307.48 128.93C307.38 129.43 307.22 129.88 306.99 130.28L306.95 130.35C306.88 130.47 306.8 130.59 306.72 130.7L306.67 130.77C306.51 130.97 306.34 131.15 306.16 131.31C305.87 131.56 305.55 131.78 305.2 131.96C305.16 131.98 305.12 132 305.09 132.01C304.97 132.07 304.83 132.13 304.68 132.18L304.58 132.21C304.13 132.37 303.6 132.49 303.03 132.56L302.95 132.57C302.78 132.59 302.6 132.61 302.41 132.62L302.27 132.63C302.08 132.64 301.89 132.65 301.68 132.65H298.73C298.67 132.65 298.61 132.65 298.55 132.65C296.73 132.65 295.29 132.27 294.3 131.51C294.26 131.48 294.23 131.45 294.19 131.42L294.14 131.38C294.05 131.31 293.97 131.23 293.89 131.16C293.83 131.1 293.57 130.81 293.53 130.75C293.45 130.65 293.39 130.55 293.32 130.44C293.27 130.37 293.25 130.33 293.23 130.3C293.16 130.17 293.1 130.05 293.04 129.92L292.99 129.81C292.93 129.66 292.88 129.52 292.84 129.36L292.81 129.27C292.77 129.11 292.73 128.94 292.7 128.77L292.69 128.71C292.66 128.54 292.65 128.37 292.63 128.19L292.62 128.1L292.61 125.23C292.57 125.1 292.58 124.93 292.6 124.77Z" fill="#080833"/>
<path d="M316.5 132.24C316.59 132.43 316.68 132.62 316.79 132.8C316.81 132.84 316.84 132.88 316.87 132.92L316.93 133.01C317.03 133.16 317.13 133.31 317.24 133.45C317.29 133.51 317.34 133.56 317.39 133.62L317.54 133.78C317.62 133.87 317.7 133.96 317.78 134.04C317.89 134.15 318.01 134.24 318.14 134.34L318.29 134.47C318.33 134.5 318.37 134.54 318.41 134.57C320.12 135.82 322.7 136.43 326.07 136.39H331.85C332.22 136.39 332.58 136.38 332.93 136.36L333.17 136.35C333.51 136.33 333.84 136.3 334.16 136.27L334.29 136.25C335.28 136.13 336.2 135.93 337 135.65L337.14 135.6C337.38 135.51 337.61 135.42 337.83 135.32L337.94 135.27C338.91 134.8 339.67 134.22 340.25 133.52L340.35 133.4C340.48 133.23 340.6 133.06 340.71 132.88L340.77 132.78C341.11 132.2 341.36 131.54 341.51 130.81L341.54 130.67C341.58 130.44 341.62 130.2 341.64 129.96L341.66 129.75C341.68 129.5 341.7 129.24 341.7 128.97L341.69 116.74H336.55V127.84C336.55 128.01 336.54 128.17 336.53 128.33L336.52 128.46C336.5 128.61 336.48 128.77 336.45 128.91L336.43 129C336.33 129.48 336.16 129.93 335.93 130.32L335.9 130.38C335.82 130.51 335.74 130.63 335.65 130.74L335.59 130.81C335.19 131.3 334.68 131.7 334.06 131.99C334.01 132.01 333.98 132.03 333.94 132.04C333.81 132.1 333.67 132.16 333.52 132.21L333.45 132.23C332.94 132.4 332.39 132.53 331.8 132.6L331.71 132.61C331.54 132.63 331.34 132.65 331.15 132.66L331 132.67C330.81 132.68 327.33 132.69 327.33 132.69C325.36 132.72 323.79 132.33 322.72 131.55C322.68 131.52 322.64 131.49 322.6 131.46L322.55 131.42C322.46 131.35 322.37 131.27 322.29 131.2C322.23 131.14 322.17 131.08 322.11 131.01L322.03 130.92C321.99 130.88 321.95 130.83 321.91 130.79C321.83 130.69 321.76 130.59 321.69 130.49C321.64 130.42 321.62 130.38 321.59 130.34C321.52 130.22 321.46 130.09 321.4 129.96L321.35 129.86C321.29 129.71 321.23 129.56 321.19 129.41L321.16 129.33C321.11 129.17 321.08 129 321.05 128.83L321.04 128.76C321.01 128.6 320.97 116.74 320.97 116.74H315.83L315.84 129.54V129.57C315.86 129.87 315.89 130.16 315.94 130.44L315.95 130.52C316 130.81 316.06 131.07 316.13 131.3L316.17 131.44C316.24 131.67 316.32 131.89 316.4 132.09L316.5 132.24Z" fill="#080833"/>
<path d="M367.87 136.38V136.39H373.02V116.71H367.87V135.98L354.94 116.71H344.79V136.39H349.94V117.11L362.87 136.39L367.87 136.38Z" fill="#080833"/>
<path d="M401 116.7H376.12V119.8H385.99V136.39H391.14V119.8H401V116.7Z" fill="#080833"/>
<path d="M409.25 116.71H404.1V136.39H409.25V116.71Z" fill="#080833"/>
<path d="M435.43 136.38V136.39H440.58V116.71H435.43V135.98L422.5 116.71H412.35V136.39H417.5V117.11L430.43 136.39L435.43 136.38Z" fill="#080833"/>
<path d="M470.01 136.39V125.83H454.93V128.94H464.72L463.04 130.62C461.72 131.94 459.96 132.67 458.09 132.67H454.05C452.45 132.6 451.2 132.21 450.3 131.54C450.26 131.51 450.22 131.48 450.18 131.44C450.06 131.34 449.97 131.26 449.89 131.18C449.83 131.12 449.78 131.06 449.72 131L449.68 130.95C449.6 130.86 449.57 130.82 449.53 130.78C449.45 130.68 449.38 130.57 449.32 130.47C449.27 130.4 449.25 130.36 449.23 130.33C449.16 130.21 449.1 130.08 449.04 129.95L448.99 129.84C448.93 129.7 448.88 129.55 448.84 129.4L448.82 129.33C448.77 129.15 448.73 128.98 448.71 128.81C448.67 128.57 448.65 128.39 448.64 128.2L448.63 125.28C448.63 125.11 448.64 124.95 448.65 124.79L448.66 124.67C448.68 124.51 448.7 124.36 448.72 124.21L448.74 124.1C448.83 123.64 449 123.2 449.22 122.81L449.26 122.73C449.33 122.62 449.41 122.5 449.49 122.38L449.54 122.31C449.93 121.81 450.43 121.42 451.03 121.12C451.06 121.11 451.09 121.09 451.13 121.07C451.26 121.01 451.4 120.95 451.55 120.89L451.62 120.87C452.11 120.7 452.64 120.57 453.22 120.5C453.22 120.5 453.66 120.45 453.85 120.44C453.85 120.44 454.38 120.42 454.58 120.42L459.49 120.41V120.42C461.13 120.48 462.44 120.86 463.37 121.56C463.41 121.59 463.71 121.84 463.78 121.92C463.84 121.98 464.21 122.42 464.24 122.47H469.84C469.8 122.24 469.75 122.02 469.69 121.82L469.66 121.73C469.58 121.46 469.5 121.24 469.42 121.03L469.35 120.87C469.26 120.68 469.17 120.49 469.07 120.31C469.05 120.27 469.02 120.23 468.99 120.19L468.94 120.11C468.84 119.96 468.75 119.81 468.64 119.67C468.59 119.61 468.54 119.56 468.5 119.5L468.36 119.33C468.29 119.24 468.21 119.16 468.13 119.08C468.02 118.97 467.9 118.87 467.78 118.77L467.64 118.65C467.6 118.62 467.56 118.58 467.52 118.55C465.87 117.31 463.36 116.69 460.13 116.74L459.52 116.75V116.73L453.2 116.74C452.84 116.74 452.5 116.75 452.16 116.77L451.93 116.78C451.6 116.8 451.28 116.83 450.97 116.86L450.84 116.88C449.88 117 449 117.2 448.23 117.47L448.09 117.52C447.86 117.61 447.64 117.7 447.43 117.8L447.31 117.86C446.38 118.32 445.65 118.9 445.09 119.6L444.99 119.72C444.86 119.89 444.75 120.06 444.64 120.23L444.58 120.33C444.25 120.91 444.01 121.58 443.86 122.3L443.84 122.39C443.79 122.68 443.75 122.92 443.73 123.16L443.71 123.36C443.69 123.62 443.67 123.88 443.67 124.15L443.69 129.55C443.71 129.86 443.74 130.15 443.78 130.42L443.79 130.49C443.84 130.79 443.9 131.05 443.96 131.28L444 131.41C444.07 131.63 444.14 131.85 444.23 132.07L444.31 132.24C444.39 132.43 444.48 132.62 444.59 132.8C444.61 132.84 444.64 132.88 444.67 132.92L444.72 133C444.82 133.15 444.91 133.3 445.02 133.45C445.07 133.51 445.12 133.57 445.16 133.62L445.3 133.78C445.38 133.87 445.45 133.95 445.53 134.04C445.64 134.15 445.76 134.25 445.88 134.35L446.03 134.47C446.07 134.5 446.1 134.53 446.14 134.56C447.79 135.8 450.3 136.41 453.54 136.37H458.07C459.62 136.37 461.07 135.77 462.16 134.67L464.83 132V136.39H470.01Z" fill="#080833"/>
<path d="M83.01 0H3.42H0V3.42001V59.94V63.36H3.42H26.49H29.91V59.94V29.91H83.01C112.29 29.91 136.11 53.73 136.11 83.01C136.11 112.29 112.29 136.11 83.01 136.11H77.67L51.07 109.51H83.01H86.43V106.09V83.01V79.59H83.01H3.42H0V83.01V162.6V166.02H3.42H26.49H29.91V162.6V130.66L64.27 165.02L65.27 166.02H66.69H83.01C128.78 166.02 166.02 128.78 166.02 83.01C166.02 37.24 128.78 0 83.01 0Z" fill="#0C36E5"/>
<path d="M283.49 73.6301L283.56 55.3501C283.56 54.4501 283.5 53.5601 283.43 52.6901L283.37 52.0101C283.28 51.1801 283.17 50.3701 283.02 49.5901L282.91 49.1101C282.39 46.6401 281.54 44.3901 280.39 42.4201L280.27 42.2001C279.83 41.4601 279.42 40.8901 278.99 40.3301L278.65 39.9101C276.69 37.5101 274.1 35.5301 270.96 34.0101L270.44 33.7601C269.67 33.4101 268.89 33.0901 268.07 32.7901L267.59 32.6301C264.86 31.6901 261.76 31.0101 258.38 30.6001L258.11 30.5601C256.84 30.4101 255.72 30.3201 254.57 30.2501L253.74 30.2101C252.55 30.1501 251.34 30.1101 250.08 30.1101L195.57 30.0801V97.0101L248.77 96.9601C260.27 97.1101 269.03 95.0401 274.85 90.7901C275 90.6801 275.13 90.5701 275.27 90.4501L275.65 90.1401C276.2 89.6901 276.62 89.3601 277.01 89.0001C277.3 88.7201 277.56 88.4301 277.82 88.1401L278.29 87.6201C278.48 87.4201 278.66 87.2201 278.83 87.0001C279.22 86.5101 279.56 86.0001 279.9 85.4801L280.09 85.2001C280.18 85.0701 280.27 84.9401 280.35 84.8001C280.72 84.1801 281.03 83.5501 281.33 82.8901L281.58 82.3501C281.87 81.6801 282.13 80.9401 282.39 80.0801L282.51 79.6701C282.74 78.8601 282.94 77.9801 283.11 77.0301L283.15 76.8201C283.32 75.7701 283.43 74.7801 283.5 73.7401L283.49 73.6301ZM266.01 69.2601C265.96 69.9301 265.9 70.4801 265.81 71.0201L265.77 71.2301C265.67 71.8101 265.54 72.3801 265.39 72.9301L265.3 73.2101C265.14 73.7401 264.96 74.2501 264.75 74.7301L264.61 75.0401C264.38 75.5401 264.16 75.9801 263.91 76.4001C263.84 76.5201 263.76 76.6401 263.68 76.7501C263.36 77.2401 263.12 77.5901 262.85 77.9301C262.73 78.0801 262.58 78.2401 262.44 78.4001L262.2 78.6601C262 78.8801 261.81 79.1001 261.59 79.3001C261.33 79.5501 261.03 79.7901 260.73 80.0301L260.52 80.2001C260.39 80.3101 260.26 80.4201 260.12 80.5201C256.6 83.0901 251.53 84.3901 245.06 84.3901C244.85 84.3901 213.05 84.3901 213.05 84.3901V42.6401L245.15 42.6501C245.87 42.6501 246.56 42.6801 247.24 42.7101L247.71 42.7301C248.38 42.7701 249.89 42.9201 249.89 42.9201C251.92 43.1601 253.79 43.5701 255.45 44.1501L255.76 44.2501C256.27 44.4401 256.77 44.6401 257.24 44.8501L257.43 44.9401C259.67 46.0201 261.41 47.3501 262.74 48.9801L262.99 49.3001C263.27 49.6701 263.55 50.0701 263.81 50.4801L263.94 50.7201C264.72 52.0701 265.3 53.5801 265.64 55.2201L265.71 55.5701C265.8 56.0301 265.87 56.5501 265.93 57.0901L265.96 57.4201C266.01 58.0501 266.04 58.6001 266.05 59.1701L266.01 69.2601Z" fill="#080833"/>
<path d="M469.96 73.6301L470.03 55.3501C470.03 54.4501 469.97 53.5601 469.9 52.6901L469.84 52.0101C469.76 51.1801 469.64 50.3701 469.49 49.5901L469.38 49.1101C468.86 46.6401 468.01 44.3901 466.86 42.4201L466.74 42.2001C466.3 41.4601 465.89 40.8901 465.46 40.3301L465.17 39.9601C463.17 37.5101 460.58 35.5301 457.43 34.0101L456.9 33.7601C456.13 33.4101 455.35 33.0901 454.53 32.7901L454.05 32.6301C451.31 31.6901 448.21 31.0101 444.84 30.6001L444.57 30.5601C443.3 30.4101 442.18 30.3201 441.03 30.2501L440.2 30.2101C439.01 30.1501 437.8 30.1101 436.54 30.1101L382.03 30.0801V97.0101L435.23 96.9601C446.66 97.1301 455.49 95.0401 461.31 90.7901C461.46 90.6801 461.59 90.5701 461.72 90.4601L462.11 90.1401C462.67 89.6901 463.08 89.3601 463.46 89.0001C463.75 88.7201 464.01 88.4301 464.27 88.1401L464.74 87.6201C464.93 87.4201 465.12 87.2101 465.29 87.0001C465.68 86.5101 466.02 86.0001 466.36 85.4801L466.55 85.1901C466.64 85.0601 466.73 84.9301 466.81 84.7901C467.18 84.1701 467.49 83.5401 467.79 82.8901L468.05 82.3401C468.33 81.6801 468.6 80.9401 468.86 80.0801L468.98 79.6801C469.22 78.8501 469.41 78.0001 469.58 77.0301L469.63 76.7501C469.79 75.7601 469.9 74.7601 469.97 73.7401L469.96 73.6301ZM452.47 69.2501C452.42 69.9201 452.36 70.4801 452.27 71.0301L452.23 71.2401C452.13 71.8201 452 72.3901 451.85 72.9301L451.74 73.2801C451.6 73.7401 451.42 74.2501 451.21 74.7401L451.07 75.0601C450.84 75.5601 450.62 76.0001 450.37 76.4101C450.29 76.5401 450.22 76.6601 450.13 76.7701C449.82 77.2501 449.58 77.6001 449.31 77.9401C449.19 78.0901 448.27 79.1101 448.05 79.3101C447.79 79.5601 447.5 79.8001 447.2 80.0301L446.98 80.2101C446.85 80.3201 446.72 80.4301 446.58 80.5301C443.06 83.1001 437.99 84.4001 431.52 84.4001C431.31 84.4001 399.51 84.4001 399.51 84.4001V42.6501C399.51 42.6501 433.02 42.6801 433.7 42.7201L434.17 42.7401C434.84 42.7801 436.35 42.9301 436.35 42.9301C438.38 43.1701 440.25 43.5801 441.91 44.1601L442.22 44.2601C442.73 44.4501 443.23 44.6501 443.7 44.8601L443.89 44.9501C446.13 46.0301 447.86 47.3601 449.19 48.9901L449.45 49.3201C449.73 49.6801 450.01 50.0701 450.26 50.4901L450.39 50.7301C451.18 52.0801 451.75 53.5901 452.09 55.2301L452.16 55.5801C452.25 56.0401 452.32 56.5601 452.38 57.0901L452.41 57.3701C452.47 58.0601 452.5 58.6001 452.5 59.1701L452.47 69.2501Z" fill="#080833"/>
<path d="M498.07 30.0801H480.57V97.0001H498.07V30.0801Z" fill="#080833"/>
<path d="M593.22 30.0601H508.61V40.6101H542.16V97.0001H559.66V40.6101H593.22V30.0601Z" fill="#080833"/>
<path d="M294.11 30.0801V97.0001H371.47V84.4001H311.61V68.8301H366.94V58.2601H311.61V42.6901H371.47V30.0801H294.11Z" fill="#080833"/>
</svg>
